<?xml version="1.0" encoding="UTF-8"?><svg id="Layer_2" xmlns="http://www.w3.org/2000/svg" viewBox="0 0 122 173.88"><defs><style>.cls-1{fill:#231f20;}</style></defs><g id="Layer_1-2"><path class="cls-1" d="m0,154.22v-25.9h3.57v10.93l9-10.93h4.62l-10.11,12.33,10.17,13.56h-4.5l-8.01-10.7-1.17,1.4v9.3H0Z"/><path class="cls-1" d="m34.28,154.22l-4.97-11.17h-4.79v11.17h-3.57v-25.9l13.15.06c2.38.51,3.7,1.85,3.98,4.03l.12.94h-.06v4.68h.06l-.12.94c-.27,2.18-1.6,3.53-3.98,4.03l-.88.06,4.97,11.17h-3.92Zm-1.17-14.73l.53-.12c.39-.16.66-.43.82-.82l.12-.53v-4.68l-.12-.53c-.16-.39-.43-.66-.82-.82l-.53-.06v-.06h-8.59v7.6h8.59Z"/><path class="cls-1" d="m59.15,154.22h-3.62v-6.43h-10.06v6.43h-3.57v-7.66l6.9-18.3h3.51l6.84,18.3v7.66Zm-4.68-10l-3.98-10.58-3.92,10.58h7.89Z"/><path class="cls-1" d="m69.69,154.22v-22.33h-6.84v-3.57h17.25v3.57h-6.84v22.33h-3.57Z"/><path class="cls-1" d="m83.81,154.22v-25.9h17.25v3.57h-13.68v7.6h10.06v3.57h-10.06v7.6h13.68v3.57h-17.25Z"/><path class="cls-1" d="m109.84,154.22l-.99-.12c-.97-.12-1.84-.56-2.6-1.34-.76-.78-1.24-1.66-1.43-2.63l-.06-.99.06-16.78c.19-.97.67-1.85,1.43-2.63.76-.78,1.63-1.23,2.6-1.34l.99-.12v.06h7.07v-.06l.99.12c.97.12,1.84.57,2.6,1.34.76.78,1.24,1.66,1.43,2.63l.06.99-.06,16.78c-.2.97-.67,1.85-1.43,2.63-.76.78-1.63,1.23-2.6,1.34l-.99.12v-.06h-7.07v.06Zm7.07-3.62l.58-.12c.39-.16.66-.41.82-.76l.06-.58h.06v-15.78h-.06l-.06-.53c-.16-.39-.43-.66-.82-.82l-.58-.12h-7.07l-.58.12c-.35.16-.62.43-.82.82l-.06.53h-.06v15.78h.06l.06.58c.19.39.47.64.82.76l.58.12h7.07Z"/><path class="cls-1" d="m0,173.88v-13.89l7.06.03c.52.1.99.36,1.41.77.42.41.66.87.72,1.4l.06.53h-.03v2.48h.03l-.06.5c-.06.52-.3.99-.72,1.4-.42.41-.89.66-1.41.77l-.47.03v.03H1.91v5.96H0Zm6.52-7.9l.28-.06c.25-.08.4-.23.44-.44l.06-.28v-2.48l-.06-.31c-.08-.21-.23-.35-.44-.44l-.28-.03v-.03H1.91v4.08h4.61Z"/><path class="cls-1" d="m10.95,173.88v-13.89h1.91v11.98h7.34v1.91h-9.25Z"/><path class="cls-1" d="m31.11,173.88h-1.94v-3.45h-5.39v3.45h-1.91v-4.11l3.7-9.82h1.88l3.67,9.82v4.11Zm-2.51-5.36l-2.13-5.68-2.1,5.68h4.23Z"/><path class="cls-1" d="m37.04,173.88v-11.98h-3.67v-1.91h9.25v1.91h-3.67v11.98h-1.91Z"/><path class="cls-1" d="m44.54,173.88v-13.89h9.25v1.91h-7.34v4.08h5.39v1.91h-5.39v5.99h-1.91Z"/><path class="cls-1" d="m58.02,173.88l-.53-.06c-.52-.06-.99-.3-1.4-.72-.41-.42-.66-.89-.77-1.41l-.03-.53.03-9c.1-.52.36-.99.77-1.41.41-.42.87-.66,1.4-.72l.53-.06v.03h3.79v-.03l.53.06c.52.06.99.3,1.4.72.41.42.66.89.77,1.41l.03.53-.03,9c-.1.52-.36.99-.77,1.41-.41.42-.87.66-1.4.72l-.53.06v-.03h-3.79v.03Zm3.79-1.94l.31-.06c.21-.08.36-.22.44-.41l.03-.31h.03v-8.47h-.03l-.03-.28c-.08-.21-.23-.35-.44-.44l-.31-.06h-3.79l-.31.06c-.19.08-.33.23-.44.44l-.03.28h-.03v8.47h.03l.03.31c.1.21.25.34.44.41l.31.06h3.79Z"/><path class="cls-1" d="m74.02,173.88l-2.67-5.99h-2.57v5.99h-1.91v-13.89l7.06.03c1.28.27,1.99.99,2.13,2.16l.06.5h-.03v2.51h.03l-.06.5c-.15,1.17-.86,1.89-2.13,2.16l-.47.03,2.67,5.99h-2.1Zm-.63-7.9l.28-.06c.21-.08.36-.23.44-.44l.06-.28v-2.51l-.06-.28c-.08-.21-.23-.35-.44-.44l-.28-.03v-.03h-4.61v4.08h4.61Z"/><path class="cls-1" d="m85.81,173.88v-8l-2.7,7.87-2.7-7.87v8h-1.91v-13.89h1.91l2.7,7.84,2.7-7.84h1.94v13.89h-1.94Z"/><path class="cls-1" d="m92.93,173.88l-.53-.06c-.52-.06-.99-.3-1.4-.72-.41-.42-.66-.89-.77-1.41l-.03-.53.03-9c.1-.52.36-.99.77-1.41.41-.42.87-.66,1.4-.72l.53-.06v.03h3.79v-.03l.53.06c.52.06.99.3,1.4.72.41.42.66.89.77,1.41l.03.53-.03,9c-.1.52-.36.99-.77,1.41-.41.42-.87.66-1.4.72l-.53.06v-.03h-3.79v.03Zm3.79-1.94l.31-.06c.21-.08.36-.22.44-.41l.03-.31h.03v-8.47h-.03l-.03-.28c-.08-.21-.23-.35-.44-.44l-.31-.06h-3.79l-.31.06c-.19.08-.33.23-.44.44l-.03.28h-.03v8.47h.03l.03.31c.1.21.25.34.44.41l.31.06h3.79Z"/><path class="cls-1" d="m101.77,173.88v-13.89l7.06.03c.52.1.99.36,1.41.77.42.41.66.87.72,1.4l.06.53h-.03v2.48h.03l-.06.5c-.06.52-.3.99-.72,1.4-.42.41-.89.66-1.41.77l-.47.03v.03h-4.67v5.96h-1.91Zm6.52-7.9l.28-.06c.25-.08.4-.23.44-.44l.06-.28v-2.48l-.06-.31c-.08-.21-.23-.35-.44-.44l-.28-.03v-.03h-4.61v4.08h4.61Z"/><path class="cls-1" d="m115.48,173.88l-.53-.06c-1.19-.15-1.91-.86-2.16-2.13l-.03-.53v-.56h1.91v.56h.03l.03.31c.1.21.25.34.44.41l.31.06h3.79l.31-.06c.19-.06.33-.2.44-.41l.03-.31h.03v-2.48h-.03l-.03-.28c-.1-.21-.25-.36-.44-.44l-.31-.06v-.03l-4.33-.03c-.54-.1-1.01-.36-1.41-.75-.4-.4-.65-.87-.75-1.41l-.03-.5v-2.48l.03-.53c.1-.52.36-.99.77-1.41.41-.42.87-.66,1.4-.72l.53-.06v.03h3.79v-.03l.53.06c.52.06.99.3,1.4.72.41.42.66.89.77,1.41l.03.53v.47h-1.91v-.47h-.03l-.03-.28c-.08-.21-.23-.35-.44-.44l-.31-.06h-3.79l-.31.06c-.19.06-.33.21-.44.44l-.03.28h-.03v2.48h.03l.03.28c.08.21.23.36.44.44l.31.06h3.86l.47.06c.52.06.99.3,1.4.72.41.42.66.89.77,1.41l.03.53v2.48l-.03.53c-.27,1.28-.99,1.99-2.16,2.13l-.53.06h-3.79Z"/><path d="m.28,0v121.49h121.49V0H.28Zm115.59,115.59h-57.53l3.1-25.85h13.67l12.47-10.04-33.48-25.98v-26.67L20.56,60.03l26.92,29.71h3.49l-3.1,25.85h-10.14l1.93-16.06-27.92-30.82-5.54,5.45V5.91h109.68v109.68Z"/><polygon points="85.26 89.74 95.74 89.74 108.21 79.69 74.72 53.72 74.72 27.05 64.24 37.35 64.24 53.72 97.73 79.69 85.26 89.74"/><polygon points="43.17 98.2 44.39 99.56 48.38 95.94 47.16 94.59 16.87 61.16 15.49 59.63 11.5 63.25 12.88 64.77 43.17 98.2"/></g></svg>