<?xml version="1.0" encoding="UTF-8"?>
<svg id="Layer_2" xmlns="http://www.w3.org/2000/svg" viewBox="0 0 117.73 117.73">
    <g id="Layer_1-2">
        <path
            d="m0,0v117.73h117.73V0H0Zm112.01,112.01h-55.75l3.01-25.05h13.25l12.08-9.73-32.45-25.17v-25.84l-32.51,31.96,26.08,28.79h3.38l-3.01,25.05h-9.83l1.87-15.57-27.06-29.87-5.37,5.28V5.72h106.28v106.28Z" />
        <polygon
            points="82.34 86.96 92.49 86.96 104.58 77.23 72.13 52.05 72.13 26.21 61.98 36.19 61.98 52.05 94.42 77.23 82.34 86.96" />
        <polygon
            points="41.55 95.16 42.74 96.47 46.61 92.97 45.42 91.66 16.07 59.26 14.73 57.79 10.87 61.29 12.21 62.76 41.55 95.16" />
    </g>
</svg>