<?xml version="1.0" encoding="UTF-8"?><svg id="Layer_2" xmlns="http://www.w3.org/2000/svg" viewBox="0 0 118.73 118.73"><defs><style>.cls-1{fill:#fff;stroke:#231f20;stroke-miterlimit:10;}</style></defs><g id="Layer_1-2"><path class="cls-1" d="m.5.5v117.73h117.73V.5H.5Zm112.01,112.01h-55.75l3.01-25.05h13.25l12.08-9.73-32.45-25.17v-25.84l-32.51,31.96,26.08,28.79h3.38l-3.01,25.05h-9.83l1.87-15.57-27.06-29.87-5.37,5.28V6.22h106.28v106.28Z"/><polygon class="cls-1" points="82.84 87.46 92.99 87.46 105.08 77.73 72.63 52.55 72.63 26.71 62.48 36.69 62.48 52.55 94.92 77.73 82.84 87.46"/><polygon class="cls-1" points="42.05 95.66 43.24 96.97 47.11 93.47 45.92 92.16 16.57 59.76 15.23 58.29 11.37 61.79 12.71 63.26 42.05 95.66"/></g></svg>