<?xml version="1.0" encoding="utf-8"?>
<!-- Generator: Adobe Illustrator 25.4.0, SVG Export Plug-In . SVG Version: 6.00 Build 0)  -->
<svg version="1.1" xmlns="http://www.w3.org/2000/svg" xmlns:xlink="http://www.w3.org/1999/xlink" x="0px" y="0px"
	 viewBox="0 0 250.2 250" style="enable-background:new 0 0 250.2 250;" xml:space="preserve">
<style type="text/css">
	.st0{fill:#FFFFFF;}
</style>
<g id="BACKGROUND">
</g>
<g id="Logo">
	<g>
		<polygon class="st0" points="180.1,186.4 202.6,186.4 229.5,164.9 157.3,108.9 157.3,51.5 134.7,73.6 134.7,108.9 206.9,164.9 		
			"/>
		<polygon class="st0" points="89.4,204.7 92.1,207.5 100.7,199.8 98,196.9 32.8,124.9 29.7,121.6 21.3,129.4 24.2,132.7 		"/>
		<path class="st0" d="M0,0v250h250.2V0H0z M240,241.6H122.2l6.6-55.2h29.3l26.9-21.7l-72-55.8V51.5l-72.2,71l58,64h7.6l-6.6,55.2
			H77.7l4.1-34l-60.1-66.4l-11.5,11.3V8.4H240V241.6z"/>
	</g>
</g>
</svg>
