<?xml version="1.0" encoding="UTF-8"?><svg id="Layer_2" xmlns="http://www.w3.org/2000/svg" viewBox="0 0 593.96 123.58"><defs><style>.cls-1{fill:#fff;stroke:#231f20;stroke-miterlimit:10;}</style></defs><g id="Layer_1-2"><path class="cls-1" d="m137.28,52.45V.68h7.13v21.85L162.41.68h9.23l-20.22,24.66,20.33,27.11h-9l-16.01-21.39-2.34,2.8v18.58h-7.13Z"/><path class="cls-1" d="m205.81,52.45l-9.93-22.32h-9.58v22.32h-7.13V.68l26.3.12c4.75,1.01,7.4,3.7,7.95,8.06l.23,1.87h-.12v9.35h.12l-.23,1.87c-.55,4.36-3.2,7.05-7.95,8.06l-1.75.12,9.93,22.32h-7.83Zm-2.34-29.45l1.05-.23c.78-.31,1.32-.86,1.64-1.64l.23-1.05v-9.35l-.23-1.05c-.31-.78-.86-1.32-1.64-1.64l-1.05-.12v-.12h-17.18v15.19h17.18Z"/><path class="cls-1" d="m255.53,52.45h-7.25v-12.86h-20.1v12.86h-7.13v-15.31L234.84.56h7.01l13.67,36.58v15.31Zm-9.35-19.98l-7.95-21.15-7.83,21.15h15.78Z"/><path class="cls-1" d="m276.61,52.45V7.81h-13.67V.68h34.48v7.13h-13.67v44.64h-7.13Z"/><path class="cls-1" d="m304.82,52.45V.68h34.48v7.13h-27.35v15.19h20.1v7.13h-20.1v15.19h27.35v7.13h-34.48Z"/><path class="cls-1" d="m356.87,52.45l-1.99-.23c-1.95-.23-3.68-1.13-5.2-2.69-1.52-1.56-2.47-3.31-2.86-5.26l-.12-1.99.12-33.54c.39-1.95,1.34-3.7,2.86-5.26,1.52-1.56,3.25-2.45,5.2-2.69l1.99-.23v.12h14.14v-.12l1.99.23c1.95.23,3.68,1.13,5.2,2.69,1.52,1.56,2.47,3.31,2.86,5.26l.12,1.99-.12,33.54c-.39,1.95-1.35,3.7-2.86,5.26-1.52,1.56-3.25,2.45-5.2,2.69l-1.99.23v-.12h-14.14v.12Zm14.14-7.25l1.17-.23c.78-.31,1.33-.82,1.64-1.52l.12-1.17h.12V10.73h-.12l-.12-1.05c-.31-.78-.86-1.32-1.64-1.64l-1.17-.23h-14.14l-1.17.23c-.7.31-1.25.86-1.64,1.64l-.12,1.05h-.12v31.55h.12l.12,1.17c.39.78.94,1.29,1.64,1.52l1.17.23h14.14Z"/><path class="cls-1" d="m138.05,122.51v-51.86l26.34.12c1.95.39,3.71,1.35,5.27,2.87,1.56,1.52,2.46,3.26,2.69,5.21l.24,1.99h-.12v9.25h.12l-.24,1.87c-.23,1.95-1.13,3.69-2.69,5.21-1.56,1.52-3.32,2.48-5.27,2.87l-1.76.12v.12h-17.44v22.24h-7.14Zm24.35-29.5l1.05-.23c.94-.31,1.48-.86,1.64-1.64l.23-1.05v-9.25l-.23-1.17c-.31-.78-.86-1.32-1.64-1.64l-1.05-.12v-.12h-17.21v15.22h17.21Z"/><path class="cls-1" d="m178.91,122.51v-51.86h7.14v44.72h27.4v7.14h-34.54Z"/><path class="cls-1" d="m254.18,122.51h-7.26v-12.88h-20.14v12.88h-7.14v-15.34l13.82-36.65h7.02l13.7,36.65v15.34Zm-9.37-20.02l-7.96-21.19-7.84,21.19h15.8Z"/><path class="cls-1" d="m276.31,122.51v-44.72h-13.7v-7.14h34.54v7.14h-13.7v44.72h-7.14Z"/><path class="cls-1" d="m304.29,122.51v-51.86h34.54v7.14h-27.4v15.22h20.14v7.14h-20.14v22.36h-7.14Z"/><path class="cls-1" d="m354.63,122.51l-1.99-.23c-1.95-.24-3.69-1.13-5.21-2.69-1.52-1.56-2.48-3.32-2.87-5.27l-.12-1.99.12-33.6c.39-1.95,1.35-3.71,2.87-5.27,1.52-1.56,3.26-2.46,5.21-2.69l1.99-.24v.12h14.17v-.12l1.99.24c1.95.23,3.69,1.13,5.21,2.69,1.52,1.56,2.48,3.32,2.87,5.27l.12,1.99-.12,33.6c-.39,1.95-1.35,3.71-2.87,5.27-1.52,1.56-3.26,2.46-5.21,2.69l-1.99.23v-.12h-14.17v.12Zm14.17-7.26l1.17-.23c.78-.31,1.33-.82,1.64-1.52l.12-1.17h.12v-31.61h-.12l-.12-1.05c-.31-.78-.86-1.32-1.64-1.64l-1.17-.24h-14.17l-1.17.24c-.7.31-1.25.86-1.64,1.64l-.12,1.05h-.12v31.61h.12l.12,1.17c.39.78.94,1.29,1.64,1.52l1.17.23h14.17Z"/><path class="cls-1" d="m414.34,122.51l-9.95-22.36h-9.6v22.36h-7.14v-51.86l26.34.12c4.76,1.02,7.41,3.71,7.96,8.08l.24,1.87h-.12v9.37h.12l-.24,1.87c-.55,4.37-3.2,7.06-7.96,8.08l-1.76.12,9.95,22.36h-7.84Zm-2.34-29.5l1.05-.23c.78-.31,1.33-.86,1.64-1.64l.23-1.05v-9.37l-.23-1.05c-.31-.78-.86-1.32-1.64-1.64l-1.05-.12v-.12h-17.21v15.22h17.21Z"/><path class="cls-1" d="m458.36,122.51v-29.85l-10.07,29.38-10.07-29.38v29.85h-7.14v-51.86h7.14l10.07,29.27,10.07-29.27h7.26v51.86h-7.26Z"/><path class="cls-1" d="m484.93,122.51l-1.99-.23c-1.95-.24-3.69-1.13-5.21-2.69-1.52-1.56-2.48-3.32-2.87-5.27l-.12-1.99.12-33.6c.39-1.95,1.35-3.71,2.87-5.27,1.52-1.56,3.26-2.46,5.21-2.69l1.99-.24v.12h14.17v-.12l1.99.24c1.95.23,3.69,1.13,5.21,2.69,1.52,1.56,2.48,3.32,2.87,5.27l.12,1.99-.12,33.6c-.39,1.95-1.35,3.71-2.87,5.27-1.52,1.56-3.26,2.46-5.21,2.69l-1.99.23v-.12h-14.17v.12Zm14.17-7.26l1.17-.23c.78-.31,1.33-.82,1.64-1.52l.12-1.17h.12v-31.61h-.12l-.12-1.05c-.31-.78-.86-1.32-1.64-1.64l-1.17-.24h-14.17l-1.17.24c-.7.31-1.25.86-1.64,1.64l-.12,1.05h-.12v31.61h.12l.12,1.17c.39.78.94,1.29,1.64,1.52l1.17.23h14.17Z"/><path class="cls-1" d="m517.95,122.51v-51.86l26.34.12c1.95.39,3.71,1.35,5.27,2.87,1.56,1.52,2.46,3.26,2.69,5.21l.24,1.99h-.12v9.25h.12l-.24,1.87c-.23,1.95-1.13,3.69-2.69,5.21-1.56,1.52-3.32,2.48-5.27,2.87l-1.76.12v.12h-17.44v22.24h-7.14Zm24.35-29.5l1.05-.23c.94-.31,1.48-.86,1.64-1.64l.23-1.05v-9.25l-.23-1.17c-.31-.78-.86-1.32-1.64-1.64l-1.05-.12v-.12h-17.21v15.22h17.21Z"/><path class="cls-1" d="m569.11,122.51l-1.99-.23c-4.45-.55-7.14-3.2-8.08-7.96l-.12-1.99v-2.11h7.14v2.11h.12l.12,1.17c.39.78.94,1.29,1.64,1.52l1.17.23h14.17l1.17-.23c.7-.24,1.25-.74,1.64-1.52l.12-1.17h.12v-9.25h-.12l-.12-1.05c-.39-.78-.94-1.33-1.64-1.64l-1.17-.24v-.12l-16.16-.12c-2.03-.39-3.79-1.33-5.27-2.81-1.48-1.48-2.42-3.24-2.81-5.27l-.12-1.87v-9.25l.12-1.99c.39-1.95,1.35-3.71,2.87-5.27,1.52-1.56,3.26-2.46,5.21-2.69l1.99-.24v.12h14.17v-.12l1.99.24c1.95.23,3.69,1.13,5.21,2.69,1.52,1.56,2.48,3.32,2.87,5.27l.12,1.99v1.76h-7.14v-1.76h-.12l-.12-1.05c-.31-.78-.86-1.32-1.64-1.64l-1.17-.24h-14.17l-1.17.24c-.7.23-1.25.78-1.64,1.64l-.12,1.05h-.12v9.25h.12l.12,1.05c.31.78.86,1.33,1.64,1.64l1.17.23h14.4l1.76.24c1.95.23,3.69,1.13,5.21,2.69,1.52,1.56,2.48,3.32,2.87,5.27l.12,1.99v9.25l-.12,1.99c-1.02,4.76-3.71,7.41-8.08,7.96l-1.99.23h-14.17Z"/><path class="cls-1" d="m.5,1.02v121h121V1.02H.5Zm115.12,115.12h-57.3l3.09-25.74h13.62l12.42-10-33.35-25.87v-26.56L20.69,60.8l26.81,29.59h3.48l-3.09,25.74h-10.1l1.92-16-27.81-30.7-5.52,5.43V6.9h109.24v109.24Z"/><polygon class="cls-1" points="85.13 90.39 95.57 90.39 107.99 80.39 74.64 54.52 74.64 27.95 64.2 38.21 64.2 54.52 97.55 80.39 85.13 90.39"/><polygon class="cls-1" points="43.21 98.82 44.43 100.17 48.4 96.57 47.18 95.22 17.02 61.93 15.64 60.41 11.67 64.01 13.05 65.53 43.21 98.82"/></g></svg>